<svg version="1.1" id="Capa_1" xmlns="http://www.w3.org/2000/svg" xmlns:xlink="http://www.w3.org/1999/xlink" x="0px" y="0px"
	 viewBox="0 0 32.296 32.296" style="enable-background:new 0 0 32.296 32.296;" xml:space="preserve">

<style>
#checkmark {
	fill: #ffffff;
}
.clip {
	animation: slide 2s;
	transform: translateX(-100%);
	animation-fill-mode: forwards; 
}
@keyframes slide {
  from {
    transform: translateX(-100%);
  }
  to {
    transform: translateX(0%);
  }
}
</style>
<defs>
	<clipPath id="appear">
		<path class="clip" d="M101.807,123.37c10-0.352,18.193,5.401,18.193,5.401V0H0v128.771c0,0,9.701-5.227">
		</path>
	</clipPath>
</defs>
<g clip-path="url(#appear)">
	<path id="checkmark" d="M31.923,9.14L13.417,27.642c-0.496,0.494-1.299,0.494-1.793,0L0.37,16.316
		c-0.494-0.496-0.494-1.302,0-1.795l2.689-2.687c0.496-0.495,1.299-0.495,1.793,0l7.678,7.729L27.438,4.654
		c0.494-0.494,1.297-0.494,1.795,0l2.689,2.691C32.421,7.84,32.421,8.646,31.923,9.14z"/>
</g>
</svg>
